<svg id="Layer_1" data-name="Layer 1" xmlns="http://www.w3.org/2000/svg" viewBox="0 0 486 486"><defs><style>.cls-1{fill:#fff;}</style></defs><g id="Sun"><g id="Layer_4" data-name="Layer 4"><circle class="cls-1" cx="243" cy="243" r="119"/><path class="cls-1" d="M16,227.5H70A15.45,15.45,0,0,1,85.5,243h0A15.45,15.45,0,0,1,70,258.5H16A15.45,15.45,0,0,1,.5,243h0A15.45,15.45,0,0,1,16,227.5Z" transform="translate(-0.5 -0.5)"/><path class="cls-1" d="M417,227.5h54A15.45,15.45,0,0,1,486.5,243h0A15.45,15.45,0,0,1,471,258.5H417A15.45,15.45,0,0,1,401.5,243h0A15.45,15.45,0,0,1,417,227.5Z" transform="translate(-0.5 -0.5)"/><path class="cls-1" d="M259.5,417v54A15.45,15.45,0,0,1,244,486.5h0A15.45,15.45,0,0,1,228.5,471V417A15.45,15.45,0,0,1,244,401.5h0A15.45,15.45,0,0,1,259.5,417Z" transform="translate(-0.5 -0.5)"/><path class="cls-1" d="M259.5,16V70A15.45,15.45,0,0,1,244,85.5h0A15.45,15.45,0,0,1,228.5,70V16A15.45,15.45,0,0,1,244,.5h0A15.45,15.45,0,0,1,259.5,16Z" transform="translate(-0.5 -0.5)"/><path class="cls-1" d="M415.3,93.6l-35.7,34.7a15.39,15.39,0,0,1-21.9,0h0a15.39,15.39,0,0,1,0-21.9l35.7-34.7a15.39,15.39,0,0,1,21.9,0h0A15.57,15.57,0,0,1,415.3,93.6Z" transform="translate(-0.5 -0.5)"/><path class="cls-1" d="M381.6,358.7l34.7,34.7a15.39,15.39,0,0,1,0,21.9h0a15.39,15.39,0,0,1-21.9,0l-34.7-34.7a15.39,15.39,0,0,1,0-21.9h0A15.57,15.57,0,0,1,381.6,358.7Z" transform="translate(-0.5 -0.5)"/><path class="cls-1" d="M128.3,380.6,93.6,415.3a15.39,15.39,0,0,1-21.9,0h0a15.39,15.39,0,0,1,0-21.9l34.7-34.7a15.39,15.39,0,0,1,21.9,0h0A15.57,15.57,0,0,1,128.3,380.6Z" transform="translate(-0.5 -0.5)"/><path class="cls-1" d="M93.6,70.7l34.7,34.7a15.39,15.39,0,0,1,0,21.9h0a15.39,15.39,0,0,1-21.9,0L71.7,92.6a15.39,15.39,0,0,1,0-21.9h0A15.57,15.57,0,0,1,93.6,70.7Z" transform="translate(-0.5 -0.5)"/></g></g></svg>