<?xml version="1.0" encoding="utf-8"?>
<svg version="1.1" id="Layer_1" xmlns="http://www.w3.org/2000/svg" xmlns:xlink="http://www.w3.org/1999/xlink" x="0px" y="0px"
	 viewBox="0 0 487 487" style="enable-background:new 0 0 487 487;" xml:space="preserve">
<style type="text/css">
	.st0{fill:#FFFFFF;}
</style>
	<g id="Sun">
		<g id="Layer_4">
			<circle class="st0" cx="243.5" cy="243.5" r="119"/>
			<path class="st0" d="M16,227.5h66c8.6,0,15.5,6.9,15.5,15.5l0,0c0,8.6-6.9,15.5-15.5,15.5H16c-8.6,0-15.5-6.9-15.5-15.5l0,0
				C0.5,234.4,7.4,227.5,16,227.5z"/>
			<path class="st0" d="M405,227.5h66c8.6,0,15.5,6.9,15.5,15.5l0,0c0,8.6-6.9,15.5-15.5,15.5h-66c-8.6,0-15.5-6.9-15.5-15.5l0,0
				C389.5,234.4,396.4,227.5,405,227.5z"/>
			<path class="st0" d="M259.5,405v66c0,8.6-6.9,15.5-15.5,15.5l0,0c-8.6,0-15.5-6.9-15.5-15.5v-66c0-8.6,6.9-15.5,15.5-15.5l0,0
				C252.6,389.5,259.5,396.4,259.5,405z"/>
			<path class="st0" d="M259.5,16v66c0,8.6-6.9,15.5-15.5,15.5l0,0c-8.6,0-15.5-6.9-15.5-15.5V16c0-8.6,6.9-15.5,15.5-15.5l0,0
				C252.6,0.5,259.5,7.4,259.5,16z"/>
			<path class="st0" d="M415.3,93.6l-46.7,46.7c-6.1,6.1-15.9,6.1-21.9,0l0,0c-6.1-6.1-6.1-15.9,0-21.9l46.7-46.7
				c6.1-6.1,15.9-6.1,21.9,0l0,0C421.3,77.8,421.3,87.6,415.3,93.6z"/>
			<path class="st0" d="M369.6,346.7l46.7,46.7c6.1,6.1,6.1,15.9,0,21.9l0,0c-6.1,6.1-15.9,6.1-21.9,0l-46.7-46.7
				c-6.1-6.1-6.1-15.9,0-21.9l0,0C353.8,340.7,363.6,340.7,369.6,346.7z"/>
			<path class="st0" d="M140.3,368.6l-46.7,46.7c-6.1,6.1-15.9,6.1-21.9,0l0,0c-6.1-6.1-6.1-15.9,0-21.9l46.7-46.7
				c6.1-6.1,15.9-6.1,21.9,0l0,0C146.3,352.8,146.3,362.6,140.3,368.6z"/>
			<path class="st0" d="M93.6,70.7l46.7,46.7c6.1,6.1,6.1,15.9,0,21.9l0,0c-6.1,6.1-15.9,6.1-21.9,0L71.7,92.6
				c-6.1-6.1-6.1-15.9,0-21.9l0,0C77.8,64.7,87.6,64.7,93.6,70.7z"/>
		</g>
	</g>
</svg>
