<svg xmlns="http://www.w3.org/2000/svg" id="Layer_1" data-name="Layer 1" viewBox="0 0 486 486">
  <defs><style>.cls-1{fill:#fff}</style></defs>
  <g id="Sun">
    <g id="Layer_4" data-name="Layer 4">
      <circle cx="243" cy="243" r="119" class="cls-1"/>
      <path d="M16 227h54a15 15 0 0 1 15 16 15 15 0 0 1-15 15H16a15 15 0 0 1-16-15 15 15 0 0 1 16-16Z" class="cls-1"/>
      <path d="M417 227h54a15 15 0 0 1 15 16 15 15 0 0 1-15 15h-54a15 15 0 0 1-16-15 15 15 0 0 1 16-16Z" class="cls-1"/>
      <path d="M259 417v54a15 15 0 0 1-15 15 15 15 0 0 1-16-15v-54a15 15 0 0 1 16-16 15 15 0 0 1 15 16Z" class="cls-1"/>
      <path d="M259 16v54a15 15 0 0 1-15 15 15 15 0 0 1-16-15V16a15 15 0 0 1 16-16 15 15 0 0 1 15 16Z" class="cls-1"/>
      <path d="m415 93-36 35a15 15 0 0 1-22 0 15 15 0 0 1 0-22l36-35a15 15 0 0 1 22 0 16 16 0 0 1 0 22Z" class="cls-1"/>
      <path d="m381 358 35 35a15 15 0 0 1 0 22 15 15 0 0 1-22 0l-35-35a15 15 0 0 1 0-22 16 16 0 0 1 22 0Z" class="cls-1"/>
      <path d="m128 380-35 35a15 15 0 0 1-22 0 15 15 0 0 1 0-22l35-35a15 15 0 0 1 22 0 16 16 0 0 1 0 22Z" class="cls-1"/>
      <path d="m93 70 35 35a15 15 0 0 1 0 22 15 15 0 0 1-22 0L71 92a15 15 0 0 1 0-22 16 16 0 0 1 22 0Z" class="cls-1"/>
    </g>
  </g>
</svg>